<svg xmlns="http://www.w3.org/2000/svg" xmlns:svgjs="http://svgjs.dev/svgjs" xmlns:xlink="http://www.w3.org/1999/xlink" width="1440" height="560" preserveAspectRatio="none" version="1.1" viewBox="0 0 1440 560"><g fill="none" clip-path="url(&quot;#SvgjsClipPath1127&quot;)"><path fill="rgba(255, 105, 219, 1)" stroke="none" d="M491.47 572.82C508.57 572.07 522.85 561.43 534.93 549.3 546.99 537.19 557.82 522.93 558.21 505.84 558.6 488.44 549.46 472.46 536.94 460.37 524.65 448.5 508.55 441.08 491.47 441.38 474.67 441.68 459.54 450.15 447.58 461.95 435.53 473.84 426.77 488.92 426.11 505.84 425.42 523.41 431.71 540.74 443.99 553.32 456.41 566.05 473.7 573.6 491.47 572.82"/><path fill="none" stroke="#fc00c0" stroke-width="2" d="M515.47 604.82C532.57 604.07 546.85 593.43 558.93 581.3 570.99 569.19 581.82 554.93 582.21 537.84 582.6 520.44 573.46 504.46 560.94 492.37 548.65 480.5 532.55 473.08 515.47 473.38 498.67 473.68 483.54 482.15 471.58 493.95 459.53 505.84 450.77 520.92 450.11 537.84 449.42 555.41 455.71 572.74 467.99 585.32 480.41 598.05 497.7 605.6 515.47 604.82"/><path fill="rgba(255, 105, 219, 1)" stroke="none" d="M15.02 465.29C33.5 464.86 50.35 455.61 63.14 442.25 75.63 429.2 83.19 412.19 83.14 394.13 83.09 376.12 75.25 359.36 62.87 346.28 50.1 332.78 33.58 321.2 15.02 322.11-2.97 322.99-15.62 338.02-28.34 350.77-41.05 363.5-55.52 376.19-56.87 394.13-58.29 413.07-48.89 431.18-35.39 444.54-21.96 457.83-3.86 465.73 15.02 465.29"/><path fill="none" stroke="#fc00c0" stroke-width="2" d="M41.02 438.29C59.5 437.86 76.35 428.61 89.14 415.25 101.63 402.2 109.19 385.19 109.14 367.13 109.09 349.12 101.25 332.36 88.87 319.28 76.1 305.78 59.58 294.2 41.02 295.11 23.03 295.99 10.38 311.02-2.34 323.77-15.05 336.5-29.52 349.19-30.87 367.13-32.29 386.07-22.89 404.18-9.39 417.54 4.04 430.83 22.14 438.73 41.02 438.29"/><path fill="rgba(255, 105, 219, 1)" stroke="none" d="M1298.09 265.28C1321.14 265.69 1342.2 252.84 1357.7 235.78 1372.46 219.54 1379.04 198.11 1379.09 176.17 1379.14 154.17 1372.78 132.56 1357.98 116.28 1342.45 99.2 1321.15 88.34 1298.09 87.09 1273.74 85.77 1248.65 92.24 1231.35 109.43 1214 126.66 1206.61 151.79 1208.42 176.17 1210.11 198.94 1224.4 217.58 1240.59 233.67 1256.72 249.7 1275.35 264.87 1298.09 265.28"/><path fill="none" stroke="#fc00c0" stroke-width="2" d="M1326.09 298.28C1349.14 298.69 1370.2 285.84 1385.7 268.78 1400.46 252.54 1407.04 231.11 1407.09 209.17 1407.14 187.17 1400.78 165.56 1385.98 149.28 1370.45 132.2 1349.15 121.34 1326.09 120.09 1301.74 118.77 1276.65 125.24 1259.35 142.43 1242 159.66 1234.61 184.79 1236.42 209.17 1238.11 231.94 1252.4 250.58 1268.59 266.67 1284.72 282.7 1303.35 297.87 1326.09 298.28"/><path fill="rgba(242, 190, 209, 1)" stroke="none" d="M1093.56 561.93C1099.83 561.86 1106.74 563.24 1111.43 559.08 1116.27 554.78 1117.41 547.66 1116.89 541.21 1116.41 535.26 1113.19 530.02 1108.77 526 1104.58 522.18 1099.23 519.83 1093.56 519.98 1088.03 520.12 1083.11 522.95 1079.12 526.77 1075.02 530.7 1072.05 535.57 1071.39 541.21 1070.64 547.64 1070.57 555.05 1075.3 559.47 1079.96 563.83 1087.18 562 1093.56 561.93"/><path fill="none" stroke="#dc5285" stroke-width="2" d="M1065.56 530.93C1071.83 530.86 1078.74 532.24 1083.43 528.08 1088.27 523.78 1089.41 516.66 1088.89 510.21 1088.41 504.26 1085.19 499.02 1080.77 495 1076.58 491.18 1071.23 488.83 1065.56 488.98 1060.03 489.12 1055.11 491.95 1051.12 495.77 1047.02 499.7 1044.05 504.57 1043.39 510.21 1042.64 516.64 1042.57 524.05 1047.3 528.47 1051.96 532.83 1059.18 531 1065.56 530.93"/><path fill="rgba(246, 48, 209, 1)" stroke="none" d="M1312.04 540.2C1324.28 540.4 1335.61 534.4 1344.26 525.74 1352.9 517.09 1359.3 505.73 1358.68 493.52 1358.09 481.75 1350.1 472.07 1341.17 464.39 1332.99 457.35 1322.83 453.6 1312.04 453.38 1300.99 453.16 1290.24 456.16 1281.7 463.18 1272.19 471 1263.37 481.21 1263.2 493.52 1263.03 505.93 1271.91 516.11 1280.88 524.68 1289.6 533.01 1299.98 540 1312.04 540.2"/><path fill="none" stroke="#c509a2" stroke-width="2" d="M1280.04 509.2C1292.28 509.4 1303.61 503.4 1312.26 494.74 1320.9 486.09 1327.3 474.73 1326.68 462.52 1326.09 450.75 1318.1 441.07 1309.17 433.39 1300.99 426.35 1290.83 422.6 1280.04 422.38 1268.99 422.16 1258.24 425.16 1249.7 432.18 1240.19 440 1231.37 450.21 1231.2 462.52 1231.03 474.93 1239.91 485.11 1248.88 493.68 1257.6 502.01 1267.98 509 1280.04 509.2"/><path fill="rgba(242, 190, 209, 1)" stroke="none" d="M1158.8 326.37C1167.8 326.3 1176.9 323.72 1183.08 317.18 1189.12 310.79 1191.22 301.65 1190.43 292.9 1189.71 284.88 1184.79 278.29 1179.06 272.64 1173.38 267.03 1166.75 262.38 1158.8 261.69 1150.12 260.94 1140.56 262.36 1134.7 268.8 1128.99 275.07 1130.48 284.42 1130.38 292.9 1130.28 301.54 1128.56 310.96 1134.15 317.55 1140.02 324.46 1149.73 326.44 1158.8 326.37"/><path fill="none" stroke="#dc5285" stroke-width="2" d="M1126.8 349.37C1135.8 349.3 1144.9 346.72 1151.08 340.18 1157.12 333.79 1159.22 324.65 1158.43 315.9 1157.71 307.88 1152.79 301.29 1147.06 295.64 1141.38 290.03 1134.75 285.38 1126.8 284.69 1118.12 283.94 1108.56 285.36 1102.7 291.8 1096.99 298.07 1098.48 307.42 1098.38 315.9 1098.28 324.54 1096.56 333.96 1102.15 340.55 1108.02 347.46 1117.73 349.44 1126.8 349.37"/><path fill="rgba(255, 18, 234, 1)" stroke="none" d="M344.06 227.53C359.59 229 375.99 225.79 387.31 215.06 398.86 204.11 404.5 187.64 402.85 171.81 401.33 157.22 390.13 146.45 379.13 136.74 369.03 127.82 357.54 120.26 344.06 119.9 330.24 119.53 317.1 125.31 307.06 134.81 296.73 144.59 288.98 157.58 289.22 171.81 289.46 185.86 298.44 197.56 308.3 207.57 318.25 217.68 329.93 226.19 344.06 227.53"/><path fill="none" stroke="#bf00ae" stroke-width="2" d="M375.06 198.53C390.59 200 406.99 196.79 418.31 186.06 429.86 175.11 435.5 158.64 433.85 142.81 432.33 128.22 421.13 117.45 410.13 107.74 400.03 98.82 388.54 91.26 375.06 90.9 361.24 90.53 348.1 96.31 338.06 105.81 327.73 115.59 319.98 128.58 320.22 142.81 320.46 156.86 329.44 168.56 339.3 178.57 349.25 188.68 360.93 197.19 375.06 198.53"/><path fill="rgba(242, 190, 209, 1)" stroke="none" d="M627.98 82.72C635.85 83.06 643.13 79.04 648.77 73.54 654.49 67.96 659.19 60.73 658.73 52.75 658.29 45.07 652.27 39.31 646.52 34.21 641.21 29.5 635.04 26.25 627.98 25.47 619.89 24.58 611.09 24.39 604.85 29.62 598.21 35.18 594.58 44.13 595.41 52.75 596.19 60.81 602.97 66.32 608.93 71.8 614.53 76.95 620.38 82.39 627.98 82.72"/><path fill="none" stroke="#dc5285" stroke-width="2" d="M658.98 50.72C666.85 51.06 674.13 47.04 679.77 41.54 685.49 35.96 690.19 28.73 689.73 20.75 689.29 13.07 683.27 7.31 677.52 2.21 672.21-2.5 666.04-5.75 658.98-6.53 650.89-7.42 642.09-7.61 635.85-2.38 629.21 3.18 625.58 12.13 626.41 20.75 627.19 28.81 633.97 34.32 639.93 39.8 645.53 44.95 651.38 50.39 658.98 50.72"/><path fill="rgba(255, 18, 234, 1)" stroke="none" d="M-7.62 177.96C10.7 178.39 27.66 167.78 39.4 153.7 50.19 140.76 53.18 123.48 51.84 106.68 50.61 91.3 42.76 78.09 32.46 66.6 21.38 54.24 8.89 42.12-7.62 40.38-25.64 38.48-45 43.7-57.16 57.14-68.93 70.15-68.48 89.16-67.61 106.68-66.79 123.06-63.02 138.97-52.46 151.52-40.84 165.32-25.65 177.53-7.62 177.96"/><path fill="none" stroke="#bf00ae" stroke-width="2" d="M-31.62 153.96C-13.3 154.39 3.66 143.78 15.4 129.7 26.19 116.76 29.18 99.48 27.84 82.68 26.61 67.3 18.76 54.09 8.46 42.6-2.62 30.24-15.11 18.12-31.62 16.38-49.64 14.48-69 19.7-81.16 33.14-92.93 46.15-92.48 65.16-91.61 82.68-90.79 99.06-87.02 114.97-76.46 127.52-64.84 141.32-49.65 153.53-31.62 153.96"/><path fill="rgba(242, 190, 209, 1)" stroke="none" d="M291.11 436.73C311.77 438.41 334.15 434.02 348.15 418.73 361.77 403.85 360.66 381.84 359.79 361.69 358.98 342.71 356.64 323.02 343.46 309.34 330.08 295.45 310.4 290.3 291.11 290.41 271.94 290.52 253.39 296.88 239.35 309.93 224.76 323.48 213.72 341.79 214.38 361.69 215.02 381.12 228.75 396.56 242.65 410.15 256.34 423.54 272.02 435.18 291.11 436.73"/><path fill="none" stroke="#dc5285" stroke-width="2" d="M324.11 460.73C344.77 462.41 367.15 458.02 381.15 442.73 394.77 427.85 393.66 405.84 392.79 385.69 391.98 366.71 389.64 347.02 376.46 333.34 363.08 319.45 343.4 314.3 324.11 314.41 304.94 314.52 286.39 320.88 272.35 333.93 257.76 347.48 246.72 365.79 247.38 385.69 248.02 405.12 261.75 420.56 275.65 434.15 289.34 447.54 305.02 459.18 324.11 460.73"/><path fill="rgba(248, 83, 180, 1)" stroke="none" d="M703.09 423.38C713.9 422.8 722.41 415.17 729.89 407.33 737.13 399.74 743.09 390.98 743.98 380.53 744.95 369.11 742.7 357.11 734.9 348.72 726.87 340.08 714.85 335.64 703.09 336.55 692.04 337.4 682.79 344.66 675.85 353.29 669.68 360.97 668.17 370.69 667.72 380.53 667.24 391.04 666.55 402.26 673.25 410.37 680.43 419.07 691.83 423.98 703.09 423.38"/><path fill="none" stroke="#df0987" stroke-width="2" d="M675.09 389.38C685.9 388.8 694.41 381.17 701.89 373.33 709.13 365.74 715.09 356.98 715.98 346.53 716.95 335.11 714.7 323.11 706.9 314.72 698.87 306.08 686.85 301.64 675.09 302.55 664.04 303.4 654.79 310.66 647.85 319.29 641.68 326.97 640.17 336.69 639.72 346.53 639.24 357.04 638.55 368.26 645.25 376.37 652.43 385.07 663.83 389.98 675.09 389.38"/><path fill="rgba(248, 83, 180, 1)" stroke="none" d="M906.76 166.93C918.38 166.88 929.49 162.25 937.71 154.04 945.94 145.82 950.85 134.72 950.68 123.09 950.52 111.62 945.37 100.68 936.84 93.01 928.72 85.71 917.63 82.57 906.76 83.63 896.83 84.6 889.16 91.38 882.01 98.34 874.72 105.44 867.42 112.99 866.25 123.09 864.96 134.3 867.89 146.02 875.55 154.3 883.47 162.87 895.09 166.98 906.76 166.93"/><path fill="none" stroke="#df0987" stroke-width="2" d="M880.76 193.93C892.38 193.88 903.49 189.25 911.71 181.04 919.94 172.82 924.85 161.72 924.68 150.09 924.52 138.62 919.37 127.68 910.84 120.01 902.72 112.71 891.63 109.57 880.76 110.63 870.83 111.6 863.16 118.38 856.01 125.34 848.72 132.44 841.42 139.99 840.25 150.09 838.96 161.3 841.89 173.02 849.55 181.3 857.47 189.87 869.09 193.98 880.76 193.93"/><path fill="rgba(248, 83, 180, 1)" stroke="none" d="M225.9 576.29C234.56 576.19 242.93 572.93 248.98 566.73 254.95 560.61 257.49 552.2 257.73 543.65 257.98 534.81 256.22 525.82 250.32 519.23 244.12 512.3 235.2 508.14 225.9 508.11 216.58 508.08 207.69 512.27 201.33 519.08 195.17 525.67 192.54 534.63 192.72 543.65 192.89 552.48 195.99 561.08 202.28 567.27 208.52 573.41 217.14 576.39 225.9 576.29"/><path fill="none" stroke="#df0987" stroke-width="2" d="M199.9 543.29C208.56 543.19 216.93 539.93 222.98 533.73 228.95 527.61 231.49 519.2 231.73 510.65 231.98 501.81 230.22 492.82 224.32 486.23 218.12 479.3 209.2 475.14 199.9 475.11 190.58 475.08 181.69 479.27 175.33 486.08 169.17 492.67 166.54 501.63 166.72 510.65 166.89 519.48 169.99 528.08 176.28 534.27 182.52 540.41 191.14 543.39 199.9 543.29"/><path fill="rgba(255, 105, 219, 1)" stroke="none" d="M886.39 497.64C897 496.73 906.96 493.11 914.78 485.88 922.95 478.33 930.01 468.62 929.84 457.49 929.67 446.47 921.99 437.47 913.92 429.96 906.21 422.78 896.93 416.95 886.39 417.04 875.93 417.13 866.73 423.04 859.33 430.43 851.92 437.83 847.02 447.08 845.88 457.49 844.58 469.34 844.19 482.83 852.66 491.22 861.11 499.6 874.53 498.66 886.39 497.64"/><path fill="none" stroke="#fc00c0" stroke-width="2" d="M911.39 521.64C922 520.73 931.96 517.11 939.78 509.88 947.95 502.33 955.01 492.62 954.84 481.49 954.67 470.47 946.99 461.47 938.92 453.96 931.21 446.78 921.93 440.95 911.39 441.04 900.93 441.13 891.73 447.04 884.33 454.43 876.92 461.83 872.02 471.08 870.88 481.49 869.58 493.34 869.19 506.83 877.66 515.22 886.11 523.6 899.53 522.66 911.39 521.64"/><path fill="rgba(242, 190, 209, 1)" stroke="none" d="M592.83 223.75C604.39 222.77 614.66 217.43 623.14 209.51 631.99 201.24 640.51 191.31 640.51 179.2 640.51 167.09 631.46 157.68 623.14 148.89 614.49 139.75 605.42 128.79 592.83 128.83 580.25 128.87 571.34 139.92 562.72 149.09 554.49 157.85 546.54 167.23 545.49 179.2 544.35 192.21 547.4 206.17 556.91 215.12 566.23 223.89 580.08 224.83 592.83 223.75"/><path fill="none" stroke="#dc5285" stroke-width="2" d="M622.83 247.75C634.39 246.77 644.66 241.43 653.14 233.51 661.99 225.24 670.51 215.31 670.51 203.2 670.51 191.09 661.46 181.68 653.14 172.89 644.49 163.75 635.42 152.79 622.83 152.83 610.25 152.87 601.34 163.92 592.72 173.09 584.49 181.85 576.54 191.23 575.49 203.2 574.35 216.21 577.4 230.17 586.91 239.12 596.23 247.89 610.08 248.83 622.83 247.75"/></g><defs><clipPath id="SvgjsClipPath1127"><rect width="1440" height="560" x="0" y="0"/></clipPath></defs></svg>