<svg xmlns="http://www.w3.org/2000/svg" xmlns:svgjs="http://svgjs.dev/svgjs" xmlns:xlink="http://www.w3.org/1999/xlink" width="1440" height="560" preserveAspectRatio="none" version="1.1" viewBox="0 0 1440 560"><g fill="none" mask="url(&quot;#SvgjsMask1001&quot;)"><path fill="#e73635" d="M280.35 261.72L335.39 261.72L335.39 316.76L280.35 316.76z"/><path fill="#037b0b" d="M40.52 76.87a22.01 22.01 0 1 0-18.57 39.91z"/><path fill="#d3b714" d="M1148.68 114.37a43.32 43.32 0 1 0-14.59-85.4z"/><path stroke="#d3b714" d="M1033.18 157.92a12.52 12.52 0 1 0-18.94-16.38z"/><path stroke="#d3b714" d="M1084.87 439.07L1110 439.07L1110 464.2L1084.87 464.2z"/><path fill="#e73635" d="M662.69 396.79L717.84 396.79L717.84 451.94L662.69 451.94z"/><path stroke="#d3b714" d="M1102.46 128.07 a25.46 25.46 0 1 0 50.92 0 a25.46 25.46 0 1 0 -50.92 0z"/><path stroke="#d3b714" d="M116.57 123.55a28.4 28.4 0 1 0 15.22-54.73z"/><path fill="#037b0b" d="M1299.97 189.89a2.53 2.53 0 1 0-1.9-4.69z"/><path fill="#d3b714" d="M336.48 70.57L357.24 70.57L357.24 83.19L336.48 83.19z"/><path fill="#e73635" d="M1229.96 128.19L1247.68 128.19L1247.68 165.54L1229.96 165.54z"/><path fill="#037b0b" d="M525.93 549.89L570.86 549.89L570.86 571.83L525.93 571.83z"/><path fill="#d3b714" d="M367.21 398.63L394.61 398.63L394.61 426.03L367.21 426.03z"/><path fill="#037b0b" d="M862.12 515.79 a34.18 34.18 0 1 0 68.36 0 a34.18 34.18 0 1 0 -68.36 0z"/><path stroke="#037b0b" d="M883.27 412.4a19.47 19.47 0 1 0 38.78 3.6z"/><path stroke="#d3b714" d="M1171.01 271.88L1203.23 271.88L1203.23 317.13L1171.01 317.13z"/><path fill="#e73635" d="M675.7 233.3a30.27 30.27 0 1 0-3.7-60.42z"/><path fill="#037b0b" d="M1063.8 44.09a29.93 29.93 0 1 0-26.82 53.52z"/><path stroke="#037b0b" d="M1353.36 544.54a11.73 11.73 0 1 0-19.67-12.79z"/><path stroke="#037b0b" d="M70.36 259.3L78.18 259.3L78.18 267.12L70.36 267.12z"/><path stroke="#037b0b" d="M431.71 115.39L470.33 115.39L470.33 154.01L431.71 154.01z"/><path fill="#d3b714" d="M4.73 436.65L45.58 436.65L45.58 477.5L4.73 477.5z"/><path fill="#d3b714" d="M1043.25 346.65L1061.15 346.65L1061.15 365.09L1043.25 365.09z"/><path fill="#d3b714" d="M1129.38 499.97L1155.91 499.97L1155.91 526.5L1129.38 526.5z"/><path stroke="#037b0b" d="M1008.46 131.57L1039.07 131.57L1039.07 162.18L1008.46 162.18z"/><path stroke="#037b0b" d="M413.9 300.34L427.25 300.34L427.25 346.49L413.9 346.49z"/><path stroke="#e73635" d="M1372.02 410.48L1401.06 410.48L1401.06 439.52L1372.02 439.52z"/><path fill="#d3b714" d="M841.42 98.54 a32.29 32.29 0 1 0 64.58 0 a32.29 32.29 0 1 0 -64.58 0z"/><path fill="#037b0b" d="M504.88 218.64 a12.79 12.79 0 1 0 25.58 0 a12.79 12.79 0 1 0 -25.58 0z"/><path fill="#037b0b" d="M-34.73 316.14 a37.94 37.94 0 1 0 75.88 0 a37.94 37.94 0 1 0 -75.88 0z"/><path stroke="#e73635" d="M702.88 216.43L741.05 216.43L741.05 269.75L702.88 269.75z"/><path stroke="#e73635" d="M1242.47 500.24a49.94 49.94 0 1 0-74.75 66.24z"/><path fill="#037b0b" d="M549.24 432.72a7.54 7.54 0 1 0-12.79 8z"/></g><defs><mask id="SvgjsMask1001"><rect width="1440" height="560" fill="#fff"/></mask></defs></svg>